<svg id="Capa_1" data-name="Capa 1" xmlns="http://www.w3.org/2000/svg" viewBox="0 0 590.58 590.58"><defs><style>.cls-1{fill:#fff;opacity:0.2;}</style></defs><path class="cls-1" d="M581.4,250.34H532.49a239.69,239.69,0,0,0-9.24-34.76l42.27-24.42h0a9.18,9.18,0,0,0,3.35-12.54l-35.76-62h0a9.19,9.19,0,0,0-12.54-3.36l-42.22,24.4a245,245,0,0,0-25.47-25.47L477.3,70h0A9.19,9.19,0,0,0,474,57.45L412,21.7h0a9.17,9.17,0,0,0-12.54,3.35L375,67.36a237.94,237.94,0,0,0-34.8-9.25V9.18A9.18,9.18,0,0,0,331.05,0H259.52a9.18,9.18,0,0,0-9.18,9.18V58.12a239.19,239.19,0,0,0-34.72,9.25L191.2,25.05h0a9.19,9.19,0,0,0-12.54-3.36l-62,35.77A9.18,9.18,0,0,0,113.34,70h0l24.36,42.24a243.52,243.52,0,0,0-25.43,25.46L70,113.3a9.18,9.18,0,0,0-12.54,3.36h0L21.69,178.59a9.19,9.19,0,0,0,3.36,12.54h0l42.34,24.46a237.74,237.74,0,0,0-9.24,34.76h-49A9.18,9.18,0,0,0,0,259.53H0v71.53H0a9.18,9.18,0,0,0,9.18,9.18h49A236.72,236.72,0,0,0,67.4,375L25.06,399.41h0A9.16,9.16,0,0,0,21.7,412h0l35.76,62h0A9.18,9.18,0,0,0,70,477.28h0l42.27-24.39a244.5,244.5,0,0,0,25.44,25.45l-24.37,42.25h0a9.18,9.18,0,0,0,3.37,12.53h0l62,35.77h0a9.18,9.18,0,0,0,12.54-3.36l24.43-42.31a240.11,240.11,0,0,0,34.72,9.24V581.4h0a9.18,9.18,0,0,0,9.18,9.18h71.54a9.18,9.18,0,0,0,9.17-9.18h0V532.46A240.35,240.35,0,0,0,375,523.22l24.43,42.3h0A9.18,9.18,0,0,0,412,568.88h0l62-35.76a9.19,9.19,0,0,0,3.35-12.55h0L452.9,478.34a244.4,244.4,0,0,0,25.48-25.5l42.21,24.39h0a9.19,9.19,0,0,0,12.54-3.36h0L568.89,412h0a9.17,9.17,0,0,0-3.36-12.53h0L523.26,375a239.35,239.35,0,0,0,9.24-34.76h48.9a9.18,9.18,0,0,0,9.18-9.18h0V259.52A9.19,9.19,0,0,0,581.4,250.34ZM295.29,460.6A165.31,165.31,0,1,1,460.6,295.29,165.31,165.31,0,0,1,295.29,460.6Z"/></svg>